<svg width="25" height="25" viewBox="0 0 25 25" fill="none" xmlns="http://www.w3.org/2000/svg">
<path d="M12.1721 3.94448C12.3119 3.35184 13.1553 3.35184 13.2952 3.94448L14.7447 10.0873C14.7949 10.3 14.961 10.4662 15.1738 10.5164L21.3166 11.9659C21.9092 12.1057 21.9092 12.9492 21.3166 13.089L15.1738 14.5385C14.961 14.5887 14.7949 14.7548 14.7447 14.9676L13.2952 21.1104C13.1553 21.7031 12.3119 21.7031 12.1721 21.1104L10.7225 14.9676C10.6723 14.7548 10.5062 14.5887 10.2935 14.5385L4.15065 13.089C3.55802 12.9492 3.55802 12.1057 4.15065 11.9659L10.2935 10.5164C10.5062 10.4662 10.6723 10.3 10.7225 10.0873L12.1721 3.94448Z" fill="white"/>
</svg>
