<svg width="24" height="24" viewBox="0 0 24 24" fill="none" xmlns="http://www.w3.org/2000/svg">
<path d="M20.9373 10.8411C20.7721 10.7091 20.5792 10.6161 20.3731 10.5688C20.167 10.5216 19.9529 10.5214 19.7466 10.5682C19.438 10.6379 19.1176 10.6377 18.809 10.5676C18.5004 10.4976 18.2113 10.3593 17.9631 10.1631C17.7148 9.96686 17.5135 9.71759 17.374 9.43352C17.2345 9.14946 17.1603 8.83779 17.1569 8.52135C17.1552 8.14947 17.0067 7.79331 16.7438 7.53034C16.4808 7.26737 16.1247 7.11887 15.7528 7.11714C15.4363 7.11369 15.1246 7.0395 14.8406 6.90002C14.5565 6.76053 14.3072 6.55928 14.111 6.31099C13.9147 6.0627 13.7765 5.77367 13.7064 5.46505C13.6363 5.15644 13.6361 4.83605 13.7059 4.52736C13.7522 4.32065 13.7515 4.10618 13.704 3.89975C13.6564 3.69332 13.5632 3.50018 13.4311 3.33457C13.299 3.16895 13.1315 3.03506 12.9408 2.94277C12.7501 2.85048 12.5412 2.80214 12.3293 2.80129C12.3101 2.8012 12.2913 2.80112 12.2721 2.80112C10.4503 2.80145 8.66966 3.34268 7.15584 4.35621C5.64203 5.36975 4.46323 6.80993 3.76889 8.49421C3.07454 10.1785 2.89592 12.031 3.25567 13.8169C3.61541 15.6028 4.49732 17.2417 5.7896 18.5258C7.08187 19.8099 8.72632 20.6814 10.5145 21.0298C12.3026 21.3782 14.154 21.1878 15.8338 20.4828C17.5136 19.7778 18.9463 18.5898 19.9502 17.0696C20.9541 15.5494 21.484 13.7653 21.4728 11.9436V11.9435C21.472 11.7313 21.4235 11.5221 21.3308 11.3312C21.2381 11.1404 21.1036 10.9729 20.9373 10.8411ZM7.63151 9.48035C7.77995 9.3319 7.96909 9.23081 8.17499 9.18985C8.38089 9.1489 8.59432 9.16992 8.78827 9.25026C8.98223 9.3306 9.14801 9.46665 9.26464 9.6412C9.38128 9.81576 9.44353 10.021 9.44353 10.2309C9.44353 10.4409 9.38128 10.6461 9.26464 10.8206C9.14801 10.9952 8.98223 11.1312 8.78827 11.2116C8.59432 11.2919 8.38089 11.3129 8.17499 11.272C7.96909 11.231 7.77995 11.1299 7.63151 10.9815C7.43246 10.7824 7.32063 10.5124 7.32063 10.2309C7.32063 9.9494 7.43246 9.67942 7.63151 9.48035ZM9.84027 15.9349C9.69182 16.0834 9.50269 16.1844 9.29678 16.2254C9.09088 16.2664 8.87746 16.2453 8.6835 16.165C8.48955 16.0847 8.32377 15.9486 8.20713 15.7741C8.0905 15.5995 8.02825 15.3943 8.02825 15.1843C8.02825 14.9744 8.0905 14.7692 8.20713 14.5946C8.32377 14.4201 8.48955 14.284 8.6835 14.2037C8.87746 14.1233 9.09088 14.1023 9.29678 14.1433C9.50269 14.1842 9.69182 14.2853 9.84027 14.4338C10.0393 14.6328 10.1511 14.9028 10.1511 15.1843C10.1511 15.4659 10.0393 15.7358 9.84027 15.9349ZM12.2311 12.3967C12.0827 12.2483 11.9816 12.0592 11.9406 11.8533C11.8997 11.6474 11.9207 11.4339 12.001 11.24C12.0814 11.046 12.2174 10.8802 12.392 10.7636C12.5665 10.647 12.7717 10.5847 12.9817 10.5847C13.1916 10.5847 13.3968 10.647 13.5714 10.7636C13.746 10.8802 13.882 11.046 13.9623 11.24C14.0427 11.4339 14.0637 11.6474 14.0227 11.8533C13.9818 12.0592 13.8807 12.2483 13.7322 12.3967C13.5332 12.5958 13.2632 12.7076 12.9817 12.7076C12.7002 12.7076 12.4302 12.5958 12.2311 12.3967ZM15.5013 16.6425C15.3529 16.791 15.1637 16.8921 14.9578 16.933C14.7519 16.974 14.5385 16.953 14.3446 16.8726C14.1506 16.7923 13.9848 16.6562 13.8682 16.4817C13.7516 16.3071 13.6893 16.1019 13.6893 15.892C13.6893 15.682 13.7516 15.4768 13.8682 15.3023C13.9848 15.1277 14.1506 14.9917 14.3446 14.9113C14.5385 14.831 14.7519 14.81 14.9578 14.8509C15.1637 14.8919 15.3529 14.993 15.5013 15.1414C15.7004 15.3405 15.8122 15.6105 15.8122 15.892C15.8122 16.1735 15.7004 16.4435 15.5013 16.6425Z" fill="#326A00"/>
</svg>
