<svg width="334" height="215" viewBox="0 0 334 215" fill="none" xmlns="http://www.w3.org/2000/svg">
<path d="M277.816 11.2923L268.406 36.112L282.116 21.5208L333.526 22.936L277.816 11.2923Z" fill="#002C44"/>
<path d="M268.696 0C268.696 0 279.136 8.79376 277.716 11.5851L333.036 22.653C333.026 22.653 306.416 4.4408 268.696 0Z" fill="#FF7B3A"/>
<path d="M267.986 36.5903C267.556 37.3808 288.956 34.4626 288.956 34.4626L281.616 21.228C281.616 21.228 271.776 29.6704 267.986 36.5903Z" fill="#FBC949"/>
<path d="M281.616 21.228C281.616 21.228 291.676 37.2929 286.046 46.6235L333.916 22.8579C333.916 22.8579 286.706 20.2813 281.616 21.228Z" fill="#F75E28"/>
<path d="M2 160.562C2.82 187.236 26.39 211.558 53.67 213.373C80.95 215.189 107.88 193.814 111.15 167.316C111.96 160.728 111.36 153.662 107.62 148.118C103.88 142.574 96.4 139.1 90.01 141.393C82.81 143.97 79.65 153.047 82.06 160.152C84.48 167.257 91.13 172.332 98.28 175.046C113.43 180.794 131.91 176.939 143.32 165.637C156.16 152.91 159.03 133.898 163.88 116.681C174.51 78.8902 192.45 20.3595 250.98 25.5518" stroke="#FBCD5F" stroke-width="3" stroke-miterlimit="10" stroke-linecap="round" stroke-linejoin="round" stroke-dasharray="8 8"/>
</svg>
